<?xml version="1.0" standalone="no"?>
<!DOCTYPE svg PUBLIC "-//W3C//DTD SVG 20010904//EN"
 "http://www.w3.org/TR/2001/REC-SVG-20010904/DTD/svg10.dtd">
<svg version="1.0" xmlns="http://www.w3.org/2000/svg"
 width="331.000000pt" height="331.000000pt" viewBox="0 0 331.000000 331.000000"
 preserveAspectRatio="xMidYMid meet">
<metadata>
Created by potrace 1.11, written by Peter Selinger 2001-2013
</metadata>
<g transform="translate(0.000000,331.000000) scale(0.100000,-0.100000)"
fill="#000000" stroke="none">
<path d="M1165 3183 c-42 -48 -94 -114 -116 -148 -41 -61 -145 -268 -170 -337
-7 -21 -16 -38 -20 -38 -5 0 -23 18 -41 41 -18 22 -43 53 -55 67 l-22 27 9
-33 c10 -37 43 -96 73 -129 19 -21 19 -22 -14 -83 -42 -80 -145 -190 -212
-228 -28 -16 -89 -41 -135 -56 -62 -21 -82 -32 -82 -46 0 -19 70 -129 95 -150
30 -25 10 -92 -56 -183 -36 -49 -37 -81 -4 -103 14 -9 25 -19 25 -23 0 -3 -20
-17 -45 -30 -56 -29 -67 -61 -36 -99 63 -79 63 -83 0 -152 -51 -57 -78 -107
-86 -165 -5 -42 -3 -47 30 -79 46 -43 145 -84 332 -136 378 -105 462 -144 573
-265 168 -184 216 -462 128 -739 -26 -84 -23 -100 20 -90 77 18 173 91 253
192 282 354 261 851 -59 1408 -56 97 -153 246 -215 329 -65 87 -133 263 -161
418 -24 129 -23 406 0 552 17 105 70 337 82 356 3 5 1 9 -5 9 -5 0 -44 -39
-86 -87z"/>
<path d="M1694 3208 c28 -70 37 -129 39 -270 2 -136 4 -158 24 -193 34 -63 91
-111 187 -156 76 -35 215 -83 222 -76 1 1 -17 52 -41 112 -59 153 -62 163 -42
147 8 -7 39 -49 67 -93 29 -44 54 -78 55 -77 7 7 -17 128 -36 185 -53 162
-214 324 -405 409 -61 27 -78 30 -70 12z"/>
<path d="M2226 3155 c-4 -14 -21 -49 -40 -78 -46 -72 -51 -99 -27 -152 24 -54
70 -117 81 -110 5 3 11 23 15 45 9 53 25 61 25 13 l1 -38 16 30 c12 21 17 53
17 107 0 66 -5 86 -33 142 -18 36 -36 66 -41 66 -4 0 -11 -11 -14 -25z"/>
<path d="M2805 3167 c-178 -63 -288 -130 -379 -228 -65 -70 -120 -172 -141
-261 l-14 -63 32 35 c18 19 51 57 74 85 23 27 45 46 48 43 4 -4 -23 -63 -60
-132 -55 -104 -63 -126 -48 -126 36 0 219 49 273 73 73 33 136 89 161 143 13
30 23 84 30 162 12 138 22 182 55 240 26 45 23 48 -31 29z"/>
<path d="M1512 2880 c-27 -189 -20 -340 24 -520 51 -206 141 -396 344 -730
287 -469 343 -603 343 -815 0 -88 -4 -123 -22 -175 -65 -186 -223 -365 -474
-534 -56 -37 -106 -72 -111 -76 -14 -13 105 26 218 71 453 181 658 423 617
726 -23 161 -123 397 -256 603 -12 19 -55 87 -95 150 -41 63 -98 152 -127 197
-225 344 -370 651 -419 888 -9 43 -19 128 -23 189 l-7 111 -12 -85z"/>
<path d="M2594 2506 c-39 -12 -89 -34 -112 -47 l-41 -25 86 -43 c47 -23 83
-44 80 -47 -4 -4 -76 9 -122 23 -45 13 19 -38 93 -75 67 -33 84 -37 171 -40
97 -4 173 8 252 41 l34 14 -40 18 c-22 11 -73 54 -114 97 -108 113 -155 127
-287 84z"/>
<path d="M2296 2412 c-3 -15 -11 -76 -17 -137 -16 -159 -24 -158 -41 1 l-12
109 -19 -44 c-28 -65 -48 -196 -41 -266 15 -152 83 -311 191 -441 l37 -46 13
68 c7 38 26 94 41 124 16 30 45 87 66 126 64 124 58 207 -23 331 -43 64 -143
178 -171 193 -15 8 -19 5 -24 -18z"/>
</g>
</svg>
